<svg version="1.1" id="Layer_1" xmlns="http://www.w3.org/2000/svg" xmlns:xlink="http://www.w3.org/1999/xlink" x="0px" y="0px"
	 viewBox="0 0 512 512" style="enable-background:new 0 0 512 512;" xml:space="preserve">
<path style="fill:#D6D5D8;"
	d="
M513.000000,139.000000 
	C513.000000,263.969604 513.000000,388.439209 513.000000,512.954407 
	C342.405396,512.954407 171.810760,512.954407 1.108067,512.954407 
	C1.108067,342.447083 1.108067,171.894104 1.108067,1.170552 
	C171.666519,1.170552 342.333252,1.170552 513.000000,1.170552 
	C513.000000,46.855869 513.000000,92.677933 513.000000,139.000000 
M365.068146,33.025776 
	C294.540833,33.017971 224.013535,33.009384 153.486221,33.009148 
	C152.325439,33.009144 151.164658,33.110882 149.076584,33.017323 
	C142.371033,33.066284 135.665497,33.115246 128.038742,33.011593 
	C100.026596,33.062885 72.014442,33.114182 43.088291,33.026764 
	C39.819511,33.026764 36.550735,33.026764 33.172009,33.026764 
	C33.172009,65.440147 33.172009,97.238457 33.034637,129.957550 
	C33.022305,209.977097 33.009369,289.996643 33.004677,370.016205 
	C33.004620,371.010529 33.110367,372.004883 33.024040,373.910919 
	C33.073479,377.596619 33.122913,381.282318 33.028286,385.899475 
	C33.028286,417.490662 33.028286,449.081848 33.028286,480.834534 
	C37.068020,480.834534 40.535156,480.834534 44.928116,480.988312 
	C72.938828,480.937469 100.949539,480.886627 129.892731,480.966400 
	C210.266617,480.978149 290.640503,480.990479 371.014374,480.994690 
	C372.009033,480.994720 373.003693,480.889771 374.904205,480.978516 
	C378.282837,480.931763 381.661499,480.885010 385.961639,480.988586 
	C417.621490,480.988586 449.281372,480.988586 480.835999,480.988586 
	C480.835999,448.525055 480.835999,416.779449 480.968964,384.102661 
	C480.976257,300.052246 480.984131,216.001846 480.984497,131.951431 
	C480.984497,130.956009 480.887634,129.960571 480.988403,128.043274 
	C480.988403,96.382309 480.988403,64.721344 480.988403,33.163975 
	C448.526001,33.163975 416.779694,33.163975 384.103394,33.030827 
	C378.067474,33.075550 372.031555,33.120274 365.068146,33.025776 
z"/>
<path fill="#000000" opacity="1.000000" stroke="none" 
	d="
M385.033386,33.163975 
	C416.779694,33.163975 448.526001,33.163975 480.988403,33.163975 
	C480.988403,64.721344 480.988403,96.382309 480.667358,128.494293 
	C480.346344,128.945312 479.865173,129.038681 479.820984,128.647369 
	C479.745239,127.208115 479.713684,126.160164 479.806335,124.719849 
	C479.578156,122.894012 479.225739,121.460533 478.828156,119.664276 
	C478.748596,118.571838 478.714203,117.842178 478.807556,116.737038 
	C478.576202,115.251114 478.217102,114.140671 477.817352,112.711273 
	C477.746796,111.965103 477.716888,111.537880 477.811951,110.714577 
	C475.911865,104.221710 473.886780,98.124939 471.824677,91.704674 
	C471.419708,90.624573 471.051788,89.867966 470.807312,88.772659 
	C469.943237,86.968811 468.955719,85.503654 467.983154,84.018402 
	C467.998108,83.998306 467.958405,84.029991 467.961731,83.662193 
	C465.621857,79.890228 463.278625,76.486061 460.962097,73.041397 
	C460.988770,73.000900 460.912262,73.060555 460.940796,72.713196 
	C459.627563,70.938820 458.285828,69.511810 456.843872,67.807938 
	C456.153900,67.025948 455.564178,66.520805 454.978210,65.661308 
	C452.649139,63.213566 450.316376,61.120190 447.856873,58.760757 
	C447.125000,58.015091 446.519806,57.535480 445.859314,56.719902 
	C444.183197,55.284000 442.562408,54.184067 440.970093,53.046471 
	C440.998566,53.008801 440.920837,53.062382 440.859741,52.720367 
	C437.188690,50.266586 433.578796,48.154823 429.985352,46.022690 
	C430.001831,46.002327 429.960022,46.032700 429.874451,45.690636 
	C428.155212,44.670399 426.521545,43.992229 424.588440,43.186165 
	C423.518036,42.748142 422.747040,42.438019 421.870056,41.765671 
	C413.471588,39.375240 405.179108,37.347038 396.523346,35.280273 
	C395.430756,35.207935 394.701447,35.174156 393.825745,34.751972 
	C391.747986,34.350868 389.816589,34.338169 387.520447,34.286865 
	C386.423615,34.209530 385.691559,34.170811 385.006195,33.892212 
	C385.052856,33.652332 385.033386,33.163975 385.033386,33.163975 
z"/>
<path fill="#000000" opacity="1.000000" stroke="none" 
	d="
M480.835999,385.033813 
	C480.835999,416.779449 480.835999,448.525055 480.835999,480.988586 
	C449.281372,480.988586 417.621490,480.988586 385.506409,480.669739 
	C385.051178,480.350861 384.963379,479.871124 385.327271,479.825806 
	C386.422791,479.744843 387.154419,479.709167 388.291992,479.798889 
	C390.455688,479.571594 392.213379,479.218964 394.334473,478.824280 
	C395.427795,478.748383 396.157806,478.714569 397.298584,478.806946 
	C399.787323,478.623169 401.948792,478.578033 403.927673,477.953888 
	C409.980530,476.044708 415.963165,473.912994 422.296021,471.828369 
	C423.376007,471.422607 424.133057,471.056335 425.229248,470.811584 
	C427.032837,469.944855 428.497284,468.956635 429.981689,467.983276 
	C430.001617,467.998108 429.970093,467.958710 430.337677,467.961060 
	C434.109467,465.620667 437.513702,463.277954 440.958557,460.962006 
	C440.999176,460.988800 440.939240,460.912109 441.286621,460.940704 
	C443.061218,459.627655 444.488464,458.286011 446.192444,456.843872 
	C446.973999,456.153290 447.478790,455.563232 448.337952,454.976868 
	C450.786377,452.648468 452.880432,450.316406 455.240356,447.857361 
	C455.985901,447.125732 456.465515,446.521057 457.281128,445.860718 
	C458.716492,444.183777 459.815857,442.562469 460.953125,440.969788 
	C460.991028,440.998383 460.937195,440.920197 461.279297,440.859375 
	C463.733093,437.188568 465.844818,433.578552 467.977051,429.985199 
	C467.997559,430.001892 467.967010,429.959625 468.309052,429.874542 
	C469.330109,428.155792 470.009125,426.522095 470.815155,424.588623 
	C471.248383,423.517242 471.554626,422.745605 472.221741,421.869385 
	C474.284149,415.472717 475.985718,409.180634 477.721008,402.569458 
	C477.789612,401.824432 477.824432,401.398468 478.233093,400.848846 
	C478.632446,399.445862 478.657990,398.166565 478.720703,396.523926 
	C478.794220,395.431702 478.830566,394.702789 479.247925,393.834290 
	C479.646759,392.092072 479.664612,390.489410 479.721008,388.495300 
	C479.795837,387.055786 479.832123,386.007721 480.108154,385.006439 
	C480.347870,385.053192 480.835999,385.033813 480.835999,385.033813 
z"/>
<path fill="#000000" opacity="1.000000" stroke="none" 
	d="
M44.002293,33.165474 
	C72.014442,33.114182 100.026596,33.062885 128.490005,33.329437 
	C128.941269,33.647278 129.033875,34.121857 128.643707,34.170120 
	C127.207176,34.249695 126.160805,34.281013 124.721573,34.188011 
	C122.894852,34.419296 121.460983,34.774902 119.664467,35.174484 
	C118.572556,35.249535 117.843300,35.280605 116.738129,35.186211 
	C115.250160,35.416264 114.138092,35.771778 112.708557,36.173069 
	C111.964706,36.247375 111.538330,36.275913 110.715813,36.179474 
	C104.221703,38.080444 98.123726,40.106392 91.681625,42.173687 
	C89.929688,42.914539 88.521866,43.614048 86.790817,44.189133 
	C85.657349,44.720074 84.847099,45.375443 84.017601,46.016350 
	C83.998352,46.001884 84.029205,46.039894 83.661484,46.037594 
	C79.887695,48.377148 76.481636,50.718998 73.037415,53.034924 
	C72.999245,53.008995 73.057014,53.081081 72.709541,53.053165 
	C70.934517,54.368034 69.506973,55.710819 67.804245,57.156353 
	C67.024063,57.846916 66.519073,58.434727 65.659607,59.018326 
	C63.210209,61.347012 61.115292,63.679905 58.755939,66.141029 
	C58.011490,66.871712 57.531471,67.474167 56.715607,68.133820 
	C55.279263,69.812469 54.178764,71.433907 53.042625,73.027725 
	C53.006985,73.000099 53.059071,73.073616 52.717209,73.135857 
	C50.262947,76.808060 48.150539,80.418015 46.026848,84.017159 
	C46.015560,84.006340 46.027424,84.037361 45.756149,84.063705 
	C45.022308,84.346123 44.559742,84.602203 44.054962,84.400246 
	C44.009258,67.016632 44.005775,50.091053 44.002293,33.165474 
z"/>
<path fill="#000000" opacity="1.000000" stroke="none" 
	d="
M128.960251,480.835815 
	C100.949539,480.886627 72.938828,480.937469 44.464401,480.454102 
	C44.031551,462.995270 44.062412,446.070648 44.404694,429.270203 
	C47.497784,433.237579 50.279453,437.080780 53.035114,440.962311 
	C53.009109,441.000610 53.081512,440.942749 53.053581,441.290192 
	C54.368217,443.065399 55.710785,444.493164 57.155090,446.196533 
	C57.844902,446.977051 58.432976,447.481934 59.017311,448.341248 
	C61.346966,450.789795 63.680363,452.883942 66.141815,455.242737 
	C66.872612,455.987518 67.475357,456.467621 68.135086,457.283356 
	C69.812012,458.721680 71.431938,459.824341 73.025635,460.960602 
	C72.999405,460.994202 73.068619,460.944611 73.132294,461.286163 
	C76.806442,463.739380 80.416916,465.851013 84.013031,467.980713 
	C83.998680,467.998779 84.034676,467.971100 84.121513,468.312927 
	C85.843765,469.333038 87.479172,470.011261 89.413742,470.817078 
	C90.482903,471.253998 91.252884,471.563385 92.129578,472.232544 
	C100.529320,474.623566 108.822372,476.654816 117.478302,478.722626 
	C118.569008,478.796143 119.296822,478.833069 120.164291,479.251282 
	C121.907585,479.651367 123.511230,479.670197 125.506027,479.725647 
	C126.943466,479.801239 127.989761,479.840210 128.989136,480.116119 
	C128.942200,480.353058 128.960251,480.835785 128.960251,480.835815 
z"/>
<path fill="#0CB3EE" opacity="1.000000" stroke="none" 
	d="
M43.545292,33.096119 
	C44.005775,50.091053 44.009258,67.016632 44.009190,84.781998 
	C41.967033,91.379860 39.416576,97.016197 38.011257,102.924904 
	C35.965591,111.525978 34.744617,120.323189 33.172009,129.036774 
	C33.172009,97.238457 33.172009,65.440147 33.172009,33.026764 
	C36.550735,33.026764 39.819511,33.026764 43.545292,33.096119 
z"/>
<path fill="#0CB3EE" opacity="1.000000" stroke="none" 
	d="
M44.093277,429.146027 
	C44.062412,446.070648 44.031551,462.995270 44.001488,480.377197 
	C40.535156,480.834534 37.068020,480.834534 33.028286,480.834534 
	C33.028286,449.081848 33.028286,417.490662 33.366592,385.741608 
	C34.143597,389.835266 34.047104,394.229034 35.131752,398.308838 
	C37.432705,406.963715 40.348969,415.454956 43.004955,424.004456 
	C42.996960,423.995636 42.982693,423.976837 42.994480,424.358887 
	C43.368603,426.209290 43.730938,427.677643 44.093277,429.146027 
z"/>
<path fill="#087CA4" opacity="1.000000" stroke="none" 
	d="
M33.103325,129.497162 
	C34.744617,120.323189 35.965591,111.525978 38.011257,102.924904 
	C39.416576,97.016197 41.967033,91.379860 44.051407,85.240021 
	C44.559742,84.602203 45.022308,84.346123 45.779045,84.445526 
	C34.329964,110.301208 34.008915,137.518509 34.016335,164.793640 
	C34.035210,234.193649 34.029358,303.593658 33.816738,372.995300 
	C33.600071,372.996948 33.166729,372.999207 33.166729,372.999207 
	C33.110367,372.004883 33.004620,371.010529 33.004677,370.016205 
	C33.009369,289.996643 33.022305,209.977097 33.103325,129.497162 
z"/>
<path fill="#087DA6" opacity="1.000000" stroke="none" 
	d="
M480.902466,384.568237 
	C480.835999,385.033813 480.347870,385.053192 479.811096,384.724579 
	C479.498993,378.440887 479.914917,372.485992 479.919250,366.530731 
	C479.970886,295.236786 479.976349,223.942764 479.932465,152.648804 
	C479.929718,148.180771 479.245605,143.714966 479.195618,139.244568 
	C479.157593,135.845520 479.623505,132.440857 479.865173,129.038681 
	C479.865173,129.038681 480.346344,128.945312 480.591187,128.955231 
	C480.887634,129.960571 480.984497,130.956009 480.984497,131.951431 
	C480.984131,216.001846 480.976257,300.052246 480.902466,384.568237 
z"/>
<path fill="#087CA4" opacity="1.000000" stroke="none" 
	d="
M129.426483,480.901093 
	C128.960251,480.835785 128.942200,480.353058 129.270294,479.817963 
	C135.711426,479.506622 141.824326,479.921753 147.937469,479.925079 
	C223.288376,479.966309 298.639343,479.947418 373.992859,480.166443 
	C373.995483,480.388916 373.998352,480.833832 373.998352,480.833832 
	C373.003693,480.889771 372.009033,480.994720 371.014374,480.994690 
	C290.640503,480.990479 210.266617,480.978149 129.426483,480.901093 
z"/>
<path fill="#08759B" opacity="1.000000" stroke="none" 
	d="
M150.003876,33.165146 
	C151.164658,33.110882 152.325439,33.009144 153.486221,33.009148 
	C224.013535,33.009384 294.540833,33.017971 365.530640,33.291740 
	C365.993164,33.557701 365.990784,33.950405 365.523590,33.975998 
	C293.374207,33.978516 221.691986,33.955437 150.008148,33.740555 
	C150.006531,33.548756 150.003876,33.165146 150.003876,33.165146 
z"/>
<path fill="#087CA4" opacity="1.000000" stroke="none" 
	d="
M33.095383,373.455078 
	C33.166729,372.999207 33.600071,372.996948 34.080193,373.311584 
	C36.077526,385.686920 37.401649,397.776611 39.206783,409.794067 
	C39.931015,414.615601 41.712616,419.278320 43.012947,424.013306 
	C40.348969,415.454956 37.432705,406.963715 35.131752,398.308838 
	C34.047104,394.229034 34.143597,389.835266 33.438622,385.275879 
	C33.122913,381.282318 33.073479,377.596619 33.095383,373.455078 
z"/>
<path fill="#087CA4" opacity="1.000000" stroke="none" 
	d="
M149.540222,33.091232 
	C150.003876,33.165146 150.006531,33.548756 149.554779,33.780640 
	C145.972290,34.271763 142.841919,34.731464 139.710709,34.737255 
	C136.152145,34.743835 132.592850,34.344654 129.033875,34.121857 
	C129.033875,34.121857 128.941269,33.647278 128.950607,33.405743 
	C135.665497,33.115246 142.371033,33.066284 149.540222,33.091232 
z"/>
<path fill="#087DA6" opacity="1.000000" stroke="none" 
	d="
M365.990784,33.950405 
	C365.990784,33.950405 365.993164,33.557701 365.994385,33.361351 
	C372.031555,33.120274 378.067474,33.075550 384.568390,33.097401 
	C385.033386,33.163975 385.052856,33.652332 384.724365,34.189068 
	C378.260834,34.467339 372.125793,34.208874 365.990784,33.950405 
z"/>
<path fill="#087DA6" opacity="1.000000" stroke="none" 
	d="
M374.451294,480.906189 
	C373.998352,480.833832 373.995483,480.388916 374.299622,479.908630 
	C378.056946,479.575958 381.510162,479.723541 384.963379,479.871124 
	C384.963379,479.871124 385.051178,480.350861 385.045654,480.594543 
	C381.661499,480.885010 378.282837,480.931763 374.451294,480.906189 
z"/>
<path fill="#0DB3EE" opacity="1.000000" stroke="none" 
	d="
M385.327271,479.825806 
	C381.510162,479.723541 378.056946,479.575958 374.296997,479.686188 
	C298.639343,479.947418 223.288376,479.966309 147.937469,479.925079 
	C141.824326,479.921753 135.711426,479.506622 129.317230,479.581024 
	C127.989761,479.840210 126.943466,479.801239 125.408081,479.397766 
	C123.287544,478.978851 121.656090,478.924438 120.024643,478.869995 
	C119.296822,478.833069 118.569008,478.796143 117.362030,478.373627 
	C109.465477,475.923553 102.054230,473.836243 94.621803,471.827209 
	C93.818314,471.610046 92.892136,471.846649 92.022873,471.872742 
	C91.252884,471.563385 90.482903,471.253998 89.336952,470.485291 
	C87.318886,469.341034 85.676773,468.656067 84.034668,467.971130 
	C84.034676,467.971100 83.998680,467.998779 83.976189,467.638092 
	C80.325340,465.166473 76.696976,463.055542 73.068619,460.944611 
	C73.068619,460.944611 72.999405,460.994202 73.002701,460.611481 
	C71.363365,459.135071 69.720734,458.041382 68.078094,456.947693 
	C67.475357,456.467621 66.872612,455.987518 66.124771,454.898315 
	C63.660141,452.188416 61.340603,450.087616 59.021057,447.986816 
	C58.432976,447.481934 57.844902,446.977051 57.187435,445.839478 
	C55.772526,443.785461 54.427010,442.364105 53.081505,440.942749 
	C53.081512,440.942749 53.009109,441.000610 53.062531,440.597198 
	C49.738201,434.788147 46.360451,429.382477 42.982697,423.976837 
	C42.982693,423.976837 42.996960,423.995636 43.004951,424.004456 
	C41.712616,419.278320 39.931015,414.615601 39.206783,409.794067 
	C37.401649,397.776611 36.077526,385.686920 34.296860,373.309937 
	C34.029358,303.593658 34.035210,234.193649 34.016335,164.793640 
	C34.008915,137.518509 34.329964,110.301208 46.050316,84.419189 
	C46.027424,84.037361 46.015560,84.006340 46.369247,83.979858 
	C48.834980,80.326782 50.947025,76.700203 53.059071,73.073616 
	C53.059071,73.073616 53.006985,73.000099 53.391415,73.003731 
	C54.867714,71.363777 55.959579,69.720192 57.051453,68.076614 
	C57.531471,67.474167 58.011490,66.871712 59.100380,66.123962 
	C61.810867,63.659950 63.912476,61.341244 66.014084,59.022537 
	C66.519073,58.434727 67.024063,57.846916 68.161362,57.189102 
	C70.214783,55.773090 71.635902,54.427086 73.057014,53.081085 
	C73.057014,53.081081 72.999245,53.008995 73.402313,53.062332 
	C77.213326,50.757080 80.621269,48.398487 84.029205,46.039894 
	C84.029205,46.039894 83.998352,46.001884 84.354988,46.042549 
	C85.512428,45.493328 86.313240,44.903442 87.114052,44.313553 
	C88.521866,43.614048 89.929688,42.914539 91.881897,42.434715 
	C96.671532,41.423302 100.945686,40.281658 105.149628,38.922783 
	C107.204483,38.258575 109.128632,37.189999 111.111946,36.304447 
	C111.538330,36.275913 111.964706,36.247375 112.902222,36.439133 
	C114.646919,36.210171 115.880486,35.760921 117.114044,35.311672 
	C117.843300,35.280605 118.572556,35.249535 119.880615,35.445091 
	C122.011093,35.218582 123.562767,34.765457 125.114441,34.312332 
	C126.160805,34.281013 127.207176,34.249695 128.643707,34.170120 
	C132.592850,34.344654 136.152145,34.743835 139.710709,34.737255 
	C142.841919,34.731464 145.972290,34.271763 149.556412,33.972443 
	C221.691986,33.955437 293.374207,33.978516 365.523590,33.975998 
	C372.125793,34.208874 378.260834,34.467339 384.677673,34.428947 
	C385.691559,34.170811 386.423615,34.209530 387.635071,34.618744 
	C390.067078,35.039616 392.019592,35.090000 393.972137,35.140381 
	C394.701447,35.174156 395.430756,35.207935 396.638489,35.629707 
	C404.534363,38.083309 411.945618,40.171875 419.378265,42.181396 
	C420.180725,42.398346 421.107147,42.156776 421.976074,42.127899 
	C422.747040,42.438019 423.518036,42.748142 424.664124,43.517918 
	C426.679504,44.662613 428.319763,45.347656 429.960022,46.032700 
	C429.960022,46.032700 430.001831,46.002327 430.022522,46.365284 
	C433.669098,48.839619 437.294983,50.950996 440.920837,53.062378 
	C440.920837,53.062382 440.998566,53.008801 440.994690,53.394901 
	C442.632050,54.872627 444.273346,55.964252 445.914612,57.055878 
	C446.519806,57.535480 447.125000,58.015091 447.873840,59.105087 
	C450.336517,61.815533 452.655518,63.915592 454.974487,66.015656 
	C455.564178,66.520805 456.153900,67.025948 456.812012,68.164749 
	C458.224365,70.219131 459.568298,71.639847 460.912231,73.060562 
	C460.912262,73.060555 460.988770,73.000900 460.935486,73.406067 
	C463.240936,77.217484 465.599670,80.623734 467.958435,84.029984 
	C467.958405,84.029991 467.998108,83.998306 467.958618,84.374077 
	C468.840698,86.203682 469.762299,87.657509 470.683868,89.111343 
	C471.051788,89.867966 471.419708,90.624573 471.564636,91.910141 
	C472.523132,96.357300 473.628632,100.300674 474.914398,104.184372 
	C475.694519,106.540840 476.753357,108.805023 477.687012,111.110664 
	C477.716888,111.537880 477.746796,111.965103 477.553741,112.906708 
	C477.780487,114.651566 478.230164,115.882042 478.679840,117.112518 
	C478.714203,117.842178 478.748596,118.571838 478.557648,119.880516 
	C478.782257,122.010422 479.232178,123.561317 479.682129,125.112206 
	C479.713684,126.160164 479.745239,127.208115 479.820984,128.647369 
	C479.623505,132.440857 479.157593,135.845520 479.195618,139.244568 
	C479.245605,143.714966 479.929718,148.180771 479.932465,152.648804 
	C479.976349,223.942764 479.970886,295.236786 479.919250,366.530731 
	C479.914917,372.485992 479.498993,378.440887 479.571350,384.677826 
	C479.832123,386.007721 479.795837,387.055786 479.392883,388.592285 
	C478.973145,390.711792 478.920013,392.342834 478.866882,393.973877 
	C478.830566,394.702789 478.794220,395.431702 478.404785,396.608643 
	C477.987549,398.361969 477.923401,399.667267 477.859253,400.972534 
	C477.824432,401.398468 477.789612,401.824432 477.375854,402.673065 
	C475.284912,409.388489 473.572876,415.681213 471.860840,421.973969 
	C471.554626,422.745605 471.248383,423.517242 470.482941,424.663513 
	C469.338135,426.678650 468.652588,428.319153 467.967010,429.959625 
	C467.967010,429.959625 467.997559,430.001892 467.634613,430.022766 
	C465.160187,433.669159 463.048706,437.294678 460.937195,440.920197 
	C460.937195,440.920197 460.991028,440.998383 460.604706,440.994385 
	C459.127289,442.632385 458.036224,444.274384 456.945160,445.916382 
	C456.465515,446.521057 455.985901,447.125732 454.895996,447.874390 
	C452.185028,450.336639 450.084320,452.654938 447.983582,454.973206 
	C447.478790,455.563232 446.973999,456.153290 445.835571,456.812256 
	C443.781006,458.224792 442.360107,459.568451 440.939240,460.912109 
	C440.939240,460.912109 440.999176,460.988800 440.593903,460.935516 
	C436.782440,463.241058 433.376282,465.599884 429.970093,467.958710 
	C429.970093,467.958710 430.001617,467.998108 429.625366,467.958374 
	C427.796112,468.842468 426.343109,469.766266 424.890106,470.690063 
	C424.133057,471.056335 423.376007,471.422607 422.094513,471.567688 
	C413.743286,473.306396 405.911469,475.246674 398.101837,477.272644 
	C397.608582,477.400574 397.288483,478.195892 396.887817,478.680786 
	C396.157806,478.714569 395.427795,478.748383 394.100281,478.549042 
	C391.630524,478.768433 389.758270,479.220978 387.886047,479.673523 
	C387.154419,479.709167 386.422791,479.744843 385.327271,479.825806 
M377.103180,268.718506 
	C377.511841,265.686310 376.646118,264.292206 373.130402,264.265045 
	C328.838654,263.923248 284.548126,263.427917 240.257034,262.995239 
	C239.320114,262.986084 238.380463,263.254395 237.312912,263.412354 
	C237.211319,264.490479 237.069382,265.295837 237.069061,266.101257 
	C237.057114,296.408081 237.139954,326.715393 236.956345,357.021118 
	C236.932800,360.906830 239.045898,361.250977 241.747360,361.785553 
	C283.700043,370.087341 325.646973,378.418488 367.600647,386.715240 
	C370.595367,387.307526 373.632446,387.685394 377.101990,388.234528 
	C377.101990,348.222626 377.101990,308.948822 377.103180,268.718506 
M237.058914,203.500000 
	C237.058914,219.263199 237.058914,235.026382 237.058914,251.345322 
	C284.045929,250.826477 330.384918,250.314789 376.838562,249.801834 
	C376.838562,208.235962 376.838562,167.340881 376.838562,126.272217 
	C375.781525,126.272217 374.962524,126.139862 374.199768,126.291153 
	C329.808380,135.096237 285.432037,143.977936 241.014999,152.651291 
	C237.418060,153.353683 236.986969,155.013718 237.008896,158.043640 
	C237.116104,172.861771 237.058365,187.681091 237.058914,203.500000 
M137.898605,220.500000 
	C137.898605,230.938248 137.898605,241.376495 137.898605,251.707657 
	C167.210052,251.707657 195.919983,251.707657 224.930115,251.707657 
	C224.930115,219.547989 224.930115,188.019135 224.930115,156.430801 
	C224.219162,156.342972 223.724777,156.158234 223.283966,156.245132 
	C196.025223,161.619354 168.776840,167.046600 141.507095,172.364212 
	C138.660065,172.919373 137.802078,174.178665 137.831543,177.048538 
	C137.976730,191.197769 137.898148,205.349289 137.898605,220.500000 
M148.522552,261.980865 
	C145.099655,261.980865 141.676758,261.980865 138.360184,261.980865 
	C138.119308,263.144104 137.934082,263.622223 137.933640,264.100525 
	C137.911285,288.593658 137.954880,313.087067 137.833069,337.579651 
	C137.817734,340.662598 139.140335,341.461395 141.837112,341.981842 
	C160.147705,345.515289 178.426010,349.215881 196.719757,352.837097 
	C205.982956,354.670746 215.256592,356.451508 224.823334,358.314178 
	C224.823334,326.228790 224.823334,294.710602 224.823334,261.990234 
	C199.451416,261.990234 174.484558,261.990234 148.522552,261.980865 
z"/>
<path fill="#087DA6" opacity="1.000000" stroke="none" 
	d="
M421.870056,41.765671 
	C421.107147,42.156776 420.180725,42.398346 419.378265,42.181396 
	C411.945618,40.171875 404.534363,38.083309 397.001770,35.668274 
	C405.179108,37.347038 413.471588,39.375240 421.870056,41.765671 
z"/>
<path fill="#087DA6" opacity="1.000000" stroke="none" 
	d="
M477.811981,110.714577 
	C476.753357,108.805023 475.694519,106.540840 474.914398,104.184372 
	C473.628632,100.300674 472.523132,96.357300 471.601685,92.233627 
	C473.886780,98.124939 475.911865,104.221710 477.811981,110.714577 
z"/>
<path fill="#087DA6" opacity="1.000000" stroke="none" 
	d="
M467.961731,83.662186 
	C465.599670,80.623734 463.240936,77.217484 460.908813,73.446564 
	C463.278625,76.486061 465.621857,79.890228 467.961731,83.662186 
z"/>
<path fill="#087DA6" opacity="1.000000" stroke="none" 
	d="
M440.859741,52.720364 
	C437.294983,50.950996 433.669098,48.839619 430.006042,46.385651 
	C433.578796,48.154823 437.188690,50.266586 440.859741,52.720364 
z"/>
<path fill="#087DA6" opacity="1.000000" stroke="none" 
	d="
M454.978210,65.661301 
	C452.655518,63.915592 450.336517,61.815533 448.000549,59.371147 
	C450.316376,61.120190 452.649139,63.213566 454.978210,65.661301 
z"/>
<path fill="#087DA6" opacity="1.000000" stroke="none" 
	d="
M393.825745,34.751976 
	C392.019592,35.090000 390.067078,35.039616 387.999878,34.657352 
	C389.816589,34.338169 391.747986,34.350868 393.825745,34.751976 
z"/>
<path fill="#087DA6" opacity="1.000000" stroke="none" 
	d="
M445.859314,56.719906 
	C444.273346,55.964252 442.632050,54.872627 440.966187,53.432571 
	C442.562408,54.184067 444.183197,55.284000 445.859314,56.719906 
z"/>
<path fill="#087DA6" opacity="1.000000" stroke="none" 
	d="
M460.940796,72.713203 
	C459.568298,71.639847 458.224365,70.219131 456.912231,68.441605 
	C458.285828,69.511810 459.627563,70.938820 460.940796,72.713203 
z"/>
<path fill="#087DA6" opacity="1.000000" stroke="none" 
	d="
M479.806335,124.719849 
	C479.232178,123.561317 478.782257,122.010422 478.602814,120.243294 
	C479.225739,121.460533 479.578156,122.894012 479.806335,124.719849 
z"/>
<path fill="#087DA6" opacity="1.000000" stroke="none" 
	d="
M429.874451,45.690636 
	C428.319763,45.347656 426.679504,44.662613 424.963562,43.645813 
	C426.521545,43.992229 428.155212,44.670399 429.874451,45.690636 
z"/>
<path fill="#087DA6" opacity="1.000000" stroke="none" 
	d="
M470.807312,88.772659 
	C469.762299,87.657509 468.840698,86.203682 467.943665,84.394173 
	C468.955719,85.503654 469.943237,86.968811 470.807312,88.772659 
z"/>
<path fill="#087DA6" opacity="1.000000" stroke="none" 
	d="
M478.807556,116.737038 
	C478.230164,115.882042 477.780487,114.651566 477.594421,113.225655 
	C478.217102,114.140671 478.576202,115.251114 478.807556,116.737038 
z"/>
<path fill="#087DA6" opacity="1.000000" stroke="none" 
	d="
M397.298584,478.806976 
	C397.288483,478.195892 397.608582,477.400574 398.101837,477.272644 
	C405.911469,475.246674 413.743286,473.306396 421.771606,471.607178 
	C415.963165,473.912994 409.980530,476.044708 403.927673,477.953888 
	C401.948792,478.578033 399.787323,478.623169 397.298584,478.806976 
z"/>
<path fill="#087DA6" opacity="1.000000" stroke="none" 
	d="
M472.221741,421.869385 
	C473.572876,415.681213 475.284912,409.388489 477.342102,402.992188 
	C475.985718,409.180634 474.284149,415.472717 472.221741,421.869385 
z"/>
<path fill="#087DA6" opacity="1.000000" stroke="none" 
	d="
M430.337677,467.961060 
	C433.376282,465.599884 436.782440,463.241058 440.553284,460.908722 
	C437.513702,463.277954 434.109467,465.620667 430.337677,467.961060 
z"/>
<path fill="#087DA6" opacity="1.000000" stroke="none" 
	d="
M461.279297,440.859375 
	C463.048706,437.294678 465.160187,433.669159 467.614105,430.006073 
	C465.844818,433.578552 463.733093,437.188568 461.279297,440.859375 
z"/>
<path fill="#087DA6" opacity="1.000000" stroke="none" 
	d="
M448.337952,454.976868 
	C450.084320,452.654938 452.185028,450.336639 454.630096,448.001343 
	C452.880432,450.316406 450.786377,452.648468 448.337952,454.976868 
z"/>
<path fill="#087DA6" opacity="1.000000" stroke="none" 
	d="
M388.291992,479.798889 
	C389.758270,479.220978 391.630524,478.768433 393.736938,478.591125 
	C392.213379,479.218964 390.455688,479.571594 388.291992,479.798889 
z"/>
<path fill="#087DA6" opacity="1.000000" stroke="none" 
	d="
M441.286621,460.940704 
	C442.360107,459.568451 443.781006,458.224792 445.558777,456.912750 
	C444.488464,458.286011 443.061218,459.627655 441.286621,460.940704 
z"/>
<path fill="#087DA6" opacity="1.000000" stroke="none" 
	d="
M457.281128,445.860718 
	C458.036224,444.274384 459.127289,442.632385 460.566803,440.965790 
	C459.815857,442.562469 458.716492,444.183777 457.281128,445.860718 
z"/>
<path fill="#087DA6" opacity="1.000000" stroke="none" 
	d="
M479.247894,393.834290 
	C478.920013,392.342834 478.973145,390.711792 479.354370,388.983765 
	C479.664612,390.489410 479.646759,392.092072 479.247894,393.834290 
z"/>
<path fill="#087DA6" opacity="1.000000" stroke="none" 
	d="
M468.309052,429.874542 
	C468.652588,428.319153 469.338135,426.678650 470.355927,424.963287 
	C470.009125,426.522095 469.330109,428.155792 468.309052,429.874542 
z"/>
<path fill="#087DA6" opacity="1.000000" stroke="none" 
	d="
M425.229248,470.811584 
	C426.343109,469.766266 427.796112,468.842468 429.605438,467.943542 
	C428.497284,468.956635 427.032837,469.944855 425.229248,470.811584 
z"/>
<path fill="#087DA6" opacity="1.000000" stroke="none" 
	d="
M478.233093,400.848846 
	C477.923401,399.667267 477.987549,398.361969 478.367615,396.971985 
	C478.657990,398.166565 478.632446,399.445862 478.233093,400.848846 
z"/>
<path fill="#087CA4" opacity="1.000000" stroke="none" 
	d="
M110.715813,36.179474 
	C109.128632,37.189999 107.204483,38.258575 105.149628,38.922783 
	C100.945686,40.281658 96.671532,41.423302 92.226013,42.393372 
	C98.123726,40.106392 104.221703,38.080444 110.715813,36.179474 
z"/>
<path fill="#087CA4" opacity="1.000000" stroke="none" 
	d="
M52.717209,73.135857 
	C50.947025,76.700203 48.834980,80.326782 46.380531,83.990677 
	C48.150539,80.418015 50.262947,76.808060 52.717209,73.135857 
z"/>
<path fill="#087CA4" opacity="1.000000" stroke="none" 
	d="
M83.661484,46.037594 
	C80.621269,48.398487 77.213326,50.757080 73.440483,53.088261 
	C76.481636,50.718998 79.887695,48.377148 83.661484,46.037594 
z"/>
<path fill="#087CA4" opacity="1.000000" stroke="none" 
	d="
M65.659607,59.018330 
	C63.912476,61.341244 61.810867,63.659950 59.364815,65.995728 
	C61.115292,63.679905 63.210209,61.347012 65.659607,59.018330 
z"/>
<path fill="#087CA4" opacity="1.000000" stroke="none" 
	d="
M56.715607,68.133820 
	C55.959579,69.720192 54.867714,71.363777 53.427055,73.031357 
	C54.178764,71.433907 55.279263,69.812469 56.715607,68.133820 
z"/>
<path fill="#087CA4" opacity="1.000000" stroke="none" 
	d="
M72.709541,53.053169 
	C71.635902,54.427086 70.214783,55.773090 68.436546,57.086349 
	C69.506973,55.710819 70.934517,54.368034 72.709541,53.053169 
z"/>
<path fill="#087CA4" opacity="1.000000" stroke="none" 
	d="
M124.721573,34.188011 
	C123.562767,34.765457 122.011093,35.218582 120.243271,35.401108 
	C121.460983,34.774902 122.894852,34.419296 124.721573,34.188011 
z"/>
<path fill="#087CA4" opacity="1.000000" stroke="none" 
	d="
M116.738129,35.186207 
	C115.880486,35.760921 114.646919,36.210171 113.219696,36.393360 
	C114.138092,35.771778 115.250160,35.416264 116.738129,35.186207 
z"/>
<path fill="#087CA4" opacity="1.000000" stroke="none" 
	d="
M86.790817,44.189129 
	C86.313240,44.903442 85.512428,45.493328 84.374237,46.057014 
	C84.847099,45.375443 85.657349,44.720074 86.790817,44.189129 
z"/>
<path fill="#087CA4" opacity="1.000000" stroke="none" 
	d="
M92.129578,472.232544 
	C92.892136,471.846649 93.818314,471.610046 94.621803,471.827209 
	C102.054230,473.836243 109.465477,475.923553 116.999153,478.337067 
	C108.822372,476.654816 100.529320,474.623566 92.129578,472.232544 
z"/>
<path fill="#087CA4" opacity="1.000000" stroke="none" 
	d="
M42.994484,424.358887 
	C46.360451,429.382477 49.738201,434.788147 53.088539,440.558899 
	C50.279453,437.080780 47.497784,433.237579 44.404694,429.270203 
	C43.730938,427.677643 43.368603,426.209290 42.994484,424.358887 
z"/>
<path fill="#087CA4" opacity="1.000000" stroke="none" 
	d="
M73.132294,461.286163 
	C76.696976,463.055542 80.325340,465.166473 83.990540,467.620056 
	C80.416916,465.851013 76.806442,463.739380 73.132294,461.286163 
z"/>
<path fill="#087CA4" opacity="1.000000" stroke="none" 
	d="
M59.017311,448.341248 
	C61.340603,450.087616 63.660141,452.188416 65.996719,454.633636 
	C63.680363,452.883942 61.346966,450.789795 59.017311,448.341248 
z"/>
<path fill="#087CA4" opacity="1.000000" stroke="none" 
	d="
M68.135086,457.283356 
	C69.720734,458.041382 71.363365,459.135071 73.028938,460.577881 
	C71.431938,459.824341 69.812012,458.721680 68.135086,457.283356 
z"/>
<path fill="#087CA4" opacity="1.000000" stroke="none" 
	d="
M53.053574,441.290222 
	C54.427010,442.364105 55.772526,443.785461 57.085693,445.563873 
	C55.710785,444.493164 54.368217,443.065399 53.053574,441.290222 
z"/>
<path fill="#087CA4" opacity="1.000000" stroke="none" 
	d="
M120.164291,479.251282 
	C121.656090,478.924438 123.287544,478.978851 125.016937,479.361145 
	C123.511230,479.670197 121.907585,479.651367 120.164291,479.251282 
z"/>
<path fill="#087CA4" opacity="1.000000" stroke="none" 
	d="
M84.121506,468.312958 
	C85.676773,468.656067 87.318886,469.341034 89.037781,470.357758 
	C87.479172,470.011261 85.843765,469.333038 84.121506,468.312958 
z"/>
<path fill="#FDFFFF" opacity="1.000000" stroke="none" 
	d="
M377.102600,269.196747 
	C377.101990,308.948822 377.101990,348.222626 377.101990,388.234528 
	C373.632446,387.685394 370.595367,387.307526 367.600647,386.715240 
	C325.646973,378.418488 283.700043,370.087341 241.747360,361.785553 
	C239.045898,361.250977 236.932800,360.906830 236.956345,357.021118 
	C237.139954,326.715393 237.057114,296.408081 237.069061,266.101257 
	C237.069382,265.295837 237.211319,264.490479 237.312912,263.412354 
	C238.380463,263.254395 239.320114,262.986084 240.257034,262.995239 
	C284.548126,263.427917 328.838654,263.923248 373.130402,264.265045 
	C376.646118,264.292206 377.511841,265.686310 377.102600,269.196747 
z"/>
<path fill="#FDFFFF" opacity="1.000000" stroke="none" 
	d="
M237.058929,203.000000 
	C237.058365,187.681091 237.116104,172.861771 237.008896,158.043640 
	C236.986969,155.013718 237.418060,153.353683 241.014999,152.651291 
	C285.432037,143.977936 329.808380,135.096237 374.199768,126.291153 
	C374.962524,126.139862 375.781525,126.272217 376.838562,126.272217 
	C376.838562,167.340881 376.838562,208.235962 376.838562,249.801834 
	C330.384918,250.314789 284.045929,250.826477 237.058914,251.345322 
	C237.058914,235.026382 237.058914,219.263199 237.058929,203.000000 
z"/>
<path fill="#FDFEFF" opacity="1.000000" stroke="none" 
	d="
M137.898560,220.000000 
	C137.898148,205.349289 137.976730,191.197769 137.831543,177.048538 
	C137.802078,174.178665 138.660065,172.919373 141.507095,172.364212 
	C168.776840,167.046600 196.025223,161.619354 223.283966,156.245132 
	C223.724777,156.158234 224.219162,156.342972 224.930115,156.430801 
	C224.930115,188.019135 224.930115,219.547989 224.930115,251.707657 
	C195.919983,251.707657 167.210052,251.707657 137.898605,251.707657 
	C137.898605,241.376495 137.898605,230.938248 137.898560,220.000000 
z"/>
<path fill="#FDFEFF" opacity="1.000000" stroke="none" 
	d="
M149.020111,261.985535 
	C174.484558,261.990234 199.451416,261.990234 224.823334,261.990234 
	C224.823334,294.710602 224.823334,326.228790 224.823334,358.314178 
	C215.256592,356.451508 205.982956,354.670746 196.719757,352.837097 
	C178.426010,349.215881 160.147705,345.515289 141.837112,341.981842 
	C139.140335,341.461395 137.817734,340.662598 137.833069,337.579651 
	C137.954880,313.087067 137.911285,288.593658 137.933640,264.100525 
	C137.934082,263.622223 138.119308,263.144104 138.360184,261.980865 
	C141.676758,261.980865 145.099655,261.980865 149.020111,261.985535 
z"/>
</svg>